<?xml version="1.0" encoding="UTF-8"?>
<svg id="Calque_1" data-name="Calque 1" xmlns="http://www.w3.org/2000/svg" viewBox="0 0 932.26 261.12">
  <defs>
    <style>
      .cls-1 {
        fill: #fff;
      }
    </style>
  </defs>
  <circle class="cls-1" cx="142.58" cy="125.42" r="59.41"/>
  <g>
    <path class="cls-1" d="M324.54,145.7c-1.69-2.82-3.92-5.02-6.69-6.62-2.77-1.59-6.31-2.67-10.63-3.24v-1.83c4.04-.56,7.58-1.48,10.63-2.75,3.05-1.27,5.58-2.89,7.6-4.86,2.02-1.97,3.54-4.29,4.58-6.97,1.03-2.68,1.55-5.65,1.55-8.94,0-3.47-.56-6.64-1.69-9.51-1.13-2.86-2.77-5.4-4.93-7.6-2.16-2.2-4.81-4.06-7.96-5.56-3.15-1.5-6.76-2.65-10.84-3.45-4.08-.8-8.57-1.2-13.45-1.2h-35.91v92.94h17.74v-33.23h16.05c3.75,0,6.95.47,9.58,1.41,2.63.94,4.81,2.54,6.55,4.79,1.74,2.25,3.03,5.26,3.87,9.01l4.37,18.03h19.57l-5.63-19.57c-1.22-4.41-2.68-8.03-4.37-10.84ZM291.44,129.22h-16.9v-32.11h17.18c7.23,0,12.6,1.32,16.12,3.94,3.52,2.63,5.28,6.67,5.28,12.11s-1.85,9.48-5.56,12.11c-3.71,2.63-9.08,3.94-16.12,3.94Z"/>
    <path class="cls-1" d="M412.06,155.9c-.14-3.43-.21-6.73-.21-9.93v-13.8c0-7.32-1.08-13.31-3.24-17.96-2.16-4.65-5.45-8.07-9.86-10.28-4.41-2.2-10.05-3.31-16.9-3.31-4.51,0-8.64.47-12.39,1.41-3.76.94-7.09,2.39-10,4.37-2.91,1.97-5.35,4.34-7.32,7.11-1.97,2.77-3.47,6.03-4.51,9.79l15.91,4.93c.66-3.29,1.88-5.94,3.66-7.96,1.78-2.02,3.92-3.5,6.41-4.44,2.49-.94,5.09-1.41,7.82-1.41,4.51,0,7.77,1.06,9.79,3.17,2.02,2.11,3.03,4.62,3.03,7.53,0,1.97-.47,3.45-1.41,4.44-.94.99-2.42,1.71-4.44,2.18-2.02.47-4.62.94-7.82,1.41-5.82.85-10.89,1.86-15.21,3.03-4.32,1.18-7.93,2.63-10.84,4.37-2.91,1.74-5.09,3.97-6.55,6.69-1.46,2.72-2.18,6.01-2.18,9.86,0,4.6.92,8.45,2.75,11.55,1.83,3.1,4.34,5.42,7.53,6.97,3.19,1.55,6.81,2.32,10.84,2.32,4.6,0,8.66-.87,12.18-2.61s6.5-4.08,8.94-7.04c2.44-2.96,4.32-6.22,5.63-9.79h2.25c.19,3.1.42,6.15.7,9.15.28,3.01.61,5.82.99,8.45h15.91c-.38-3.19-.68-6.5-.92-9.93-.24-3.43-.42-6.85-.56-10.28ZM390.58,156.05c-1.6,1.93-3.33,3.54-5.21,4.86-1.88,1.32-3.78,2.3-5.7,2.96-1.93.66-3.83.99-5.7.99-3.19,0-5.82-.89-7.89-2.68-2.07-1.78-3.1-4.27-3.1-7.46,0-2.53.61-4.53,1.83-5.98,1.22-1.45,2.86-2.58,4.93-3.38,2.06-.8,4.39-1.46,6.97-1.97,2.58-.51,5.16-.96,7.75-1.34,2.58-.37,5.04-.94,7.39-1.69.93-.3,1.78-.65,2.59-1.04l.22,9.91c-1.13,2.63-2.49,4.91-4.08,6.83Z"/>
    <rect class="cls-1" x="431" y="102.46" width="17.74" height="73.65"/>
    <path class="cls-1" d="M448.32,75.14c-1.88-1.5-4.7-2.25-8.45-2.25s-6.32.77-8.24,2.32c-1.92,1.55-2.89,3.78-2.89,6.69s.96,5.14,2.89,6.69c1.92,1.55,4.67,2.32,8.24,2.32s6.45-.77,8.38-2.32c1.92-1.55,2.89-3.78,2.89-6.69s-.94-5.26-2.82-6.76Z"/>
    <path class="cls-1" d="M511.54,100.63c-4.6,0-8.64.89-12.11,2.68-3.47,1.78-6.31,4.46-8.52,8.03-2.21,3.57-3.97,8.12-5.28,13.66h-2.53l.42-22.53h-14.79v73.65h17.74v-33.38c.09-4.88.87-9.37,2.32-13.45,1.45-4.08,3.54-7.37,6.27-9.86,2.72-2.49,6.05-3.73,10-3.73,4.69,0,8.24,1.85,10.63,5.56,2.39,3.71,3.59,9.55,3.59,17.53v37.32h17.88v-39.15c0-12.39-2.18-21.55-6.55-27.46-4.37-5.91-10.73-8.87-19.08-8.87Z"/>
    <path class="cls-1" d="M620.4,91.48c-3.38-2.72-7.46-4.79-12.25-6.2s-10.19-2.11-16.19-2.11h-35.06v92.94h17.74v-27.04h13.38c9.39,0,17.25-1.24,23.59-3.73,6.34-2.49,11.12-6.17,14.36-11.05,3.24-4.88,4.86-10.89,4.86-18.03,0-5.44-.89-10.26-2.68-14.43-1.78-4.18-4.37-7.63-7.75-10.35ZM607.23,130.42c-3.71,2.96-9.32,4.44-16.83,4.44h-15.77v-37.6h16.9c7.23,0,12.58,1.55,16.05,4.65,3.47,3.1,5.21,7.7,5.21,13.8,0,6.85-1.85,11.76-5.56,14.72Z"/>
    <path class="cls-1" d="M706.93,155.9c-.14-3.43-.21-6.73-.21-9.93v-13.8c0-7.32-1.08-13.31-3.24-17.96-2.16-4.65-5.45-8.07-9.86-10.28-4.41-2.2-10.05-3.31-16.9-3.31-4.51,0-8.64.47-12.39,1.41-3.76.94-7.09,2.39-10,4.37-2.91,1.97-5.35,4.34-7.32,7.11-1.97,2.77-3.47,6.03-4.51,9.79l15.91,4.93c.66-3.29,1.88-5.94,3.66-7.96,1.78-2.02,3.92-3.5,6.41-4.44,2.49-.94,5.09-1.41,7.82-1.41,4.51,0,7.77,1.06,9.79,3.17,2.02,2.11,3.03,4.62,3.03,7.53,0,1.97-.47,3.45-1.41,4.44-.94.99-2.42,1.71-4.44,2.18-2.02.47-4.62.94-7.82,1.41-5.82.85-10.89,1.86-15.21,3.03-4.32,1.18-7.93,2.63-10.84,4.37-2.91,1.74-5.09,3.97-6.55,6.69-1.46,2.72-2.18,6.01-2.18,9.86,0,4.6.92,8.45,2.75,11.55,1.83,3.1,4.34,5.42,7.53,6.97,3.19,1.55,6.81,2.32,10.84,2.32,4.6,0,8.66-.87,12.18-2.61s6.5-4.08,8.94-7.04c2.44-2.96,4.32-6.22,5.63-9.79h2.25c.19,3.1.42,6.15.7,9.15.28,3.01.61,5.82.99,8.45h15.91c-.38-3.19-.68-6.5-.92-9.93-.24-3.43-.42-6.85-.56-10.28ZM685.46,156.05c-1.6,1.93-3.33,3.54-5.21,4.86-1.88,1.32-3.78,2.3-5.7,2.96-1.93.66-3.83.99-5.7.99-3.19,0-5.82-.89-7.89-2.68-2.07-1.78-3.1-4.27-3.1-7.46,0-2.53.61-4.53,1.83-5.98,1.22-1.45,2.86-2.58,4.93-3.38,2.06-.8,4.39-1.46,6.97-1.97,2.58-.51,5.16-.96,7.75-1.34,2.58-.37,5.04-.94,7.39-1.69.93-.3,1.78-.65,2.59-1.04l.22,9.91c-1.13,2.63-2.49,4.91-4.08,6.83Z"/>
    <path class="cls-1" d="M755.87,161.33c-3.29,0-5.75-.8-7.39-2.39-1.64-1.59-2.46-4.13-2.46-7.6v-34.08h19.43v-14.79h-19.43v-16.34h-10.28l-1.69,10.7c-.28,2.16-1.08,3.66-2.39,4.51-1.32.84-3.33,1.27-6.06,1.27h-7.18l-.28,14.08h10.84v35.35c0,8.82,1.83,15.33,5.49,19.5,3.66,4.18,9.39,6.27,17.18,6.27,1.88,0,4.01-.17,6.41-.49,2.39-.33,5.05-.96,7.96-1.9v-16.9c-1.5,1.04-3.12,1.76-4.86,2.18-1.74.42-3.5.63-5.28.63Z"/>
    <path class="cls-1" d="M842.75,109.58c-4.22-5.96-10.61-8.94-19.15-8.94-4.7,0-8.66.94-11.9,2.82-3.24,1.88-5.89,4.58-7.96,8.1-2.07,3.52-3.76,7.82-5.07,12.88h-2.96c.37-2.16.73-4.32,1.06-6.48.33-2.16.63-4.32.92-6.48.28-2.16.49-4.27.63-6.34.14-2.06.21-4.08.21-6.06v-22.95h-17.88v99.98h17.74v-34.08c.28-4.98,1.13-9.43,2.53-13.38s3.43-7.11,6.06-9.51c2.63-2.39,5.91-3.59,9.86-3.59,4.79,0,8.38,1.93,10.77,5.77,2.39,3.85,3.59,9.81,3.59,17.88v36.9h17.88v-39.43c0-12.11-2.11-21.15-6.34-27.11Z"/>
  </g>
</svg>